<svg width="40" height="40" viewBox="0 0 40 40" fill="none" xmlns="http://www.w3.org/2000/svg">
<mask id="path-1-inside-1_866_2407" fill="white">
<path d="M0 19.9935C0 8.95139 8.95139 0 19.9935 0C31.0356 0 39.987 8.95139 39.987 19.9935C39.987 31.0356 31.0356 39.987 19.9935 39.987C8.95139 39.987 0 31.0356 0 19.9935Z"/>
</mask>
<path d="M0 19.9935C0 8.95139 8.95139 0 19.9935 0C31.0356 0 39.987 8.95139 39.987 19.9935C39.987 31.0356 31.0356 39.987 19.9935 39.987C8.95139 39.987 0 31.0356 0 19.9935Z" fill="#00C950" fill-opacity="0.2"/>
<path d="M0 19.9935M39.987 19.9935M39.987 19.9935M0 19.9935M19.9935 0M39.987 19.9935M19.9935 39.987M0 19.9935M19.9935 39.987V38.2519C9.90962 38.2519 1.73503 30.0773 1.73503 19.9935H0H-1.73503C-1.73503 31.9938 7.99316 41.722 19.9935 41.722V39.987ZM39.987 19.9935H38.2519C38.2519 30.0773 30.0773 38.2519 19.9935 38.2519V39.987V41.722C31.9938 41.722 41.722 31.9938 41.722 19.9935H39.987ZM19.9935 0V1.73503C30.0773 1.73503 38.2519 9.90962 38.2519 19.9935H39.987H41.722C41.722 7.99316 31.9938 -1.73503 19.9935 -1.73503V0ZM19.9935 0V-1.73503C7.99316 -1.73503 -1.73503 7.99316 -1.73503 19.9935H0H1.73503C1.73503 9.90962 9.90962 1.73503 19.9935 1.73503V0Z" fill="#05DF72" fill-opacity="0.3" mask="url(#path-1-inside-1_866_2407)"/>
<g clip-path="url(#clip0_866_2407)">
<path d="M28.3184 15.8311L21.2422 22.9073L17.0797 18.7448L11.6685 24.156" stroke="#05DF72" stroke-width="1.66499" stroke-linecap="round" stroke-linejoin="round"/>
<path d="M23.3235 15.8311H28.3184V20.826" stroke="#05DF72" stroke-width="1.66499" stroke-linecap="round" stroke-linejoin="round"/>
</g>
<defs>
<clipPath id="clip0_866_2407">
<rect width="19.9799" height="19.9799" fill="white" transform="translate(10.0035 10.0034)"/>
</clipPath>
</defs>
</svg>
