<svg width="40" height="40" viewBox="0 0 40 40" fill="none" xmlns="http://www.w3.org/2000/svg">
<mask id="path-1-inside-1_291_385" fill="white">
<path d="M0 19.9879C0 8.9489 8.9489 0 19.9879 0C31.0269 0 39.9758 8.9489 39.9758 19.9879C39.9758 31.0269 31.0269 39.9758 19.9879 39.9758C8.9489 39.9758 0 31.0269 0 19.9879Z"/>
</mask>
<path d="M0 19.9879C0 8.9489 8.9489 0 19.9879 0C31.0269 0 39.9758 8.9489 39.9758 19.9879C39.9758 31.0269 31.0269 39.9758 19.9879 39.9758C8.9489 39.9758 0 31.0269 0 19.9879Z" fill="#00B8DB" fill-opacity="0.2"/>
<path d="M19.9879 39.9758V38.2656C9.89342 38.2656 1.7102 30.0824 1.7102 19.9879H0H-1.7102C-1.7102 31.9715 8.00438 41.6861 19.9879 41.6861V39.9758ZM39.9758 19.9879H38.2656C38.2656 30.0824 30.0824 38.2656 19.9879 38.2656V39.9758V41.6861C31.9715 41.6861 41.6861 31.9715 41.6861 19.9879H39.9758ZM19.9879 0V1.7102C30.0824 1.7102 38.2656 9.89342 38.2656 19.9879H39.9758H41.6861C41.6861 8.00438 31.9715 -1.7102 19.9879 -1.7102V0ZM19.9879 0V-1.7102C8.00438 -1.7102 -1.7102 8.00438 -1.7102 19.9879H0H1.7102C1.7102 9.89342 9.89342 1.7102 19.9879 1.7102V0Z" fill="#00D3F2" fill-opacity="0.3" mask="url(#path-1-inside-1_291_385)"/>
<path d="M25.8177 19.1553H14.1581C13.2382 19.1553 12.4925 19.901 12.4925 20.8209V26.6507C12.4925 27.5707 13.2382 28.3164 14.1581 28.3164H25.8177C26.7377 28.3164 27.4834 27.5707 27.4834 26.6507V20.8209C27.4834 19.901 26.7377 19.1553 25.8177 19.1553Z" stroke="#00D3F2" stroke-width="1.66566" stroke-linecap="round" stroke-linejoin="round"/>
<path d="M15.8238 19.1551V15.8238C15.8238 14.7194 16.2625 13.6602 17.0434 12.8793C17.8243 12.0984 18.8835 11.6597 19.9879 11.6597C21.0923 11.6597 22.1515 12.0984 22.9324 12.8793C23.7133 13.6602 24.1521 14.7194 24.1521 15.8238V19.1551" stroke="#00D3F2" stroke-width="1.66566" stroke-linecap="round" stroke-linejoin="round"/>
</svg>
