<svg width="96" height="96" viewBox="0 0 96 96" fill="none" xmlns="http://www.w3.org/2000/svg">
<mask id="path-1-inside-1_282_4154" fill="white">
<path d="M0 47.9924C0 21.4869 21.4869 0 47.9924 0C74.4979 0 95.9848 21.4869 95.9848 47.9924C95.9848 74.4979 74.4979 95.9848 47.9924 95.9848C21.4869 95.9848 0 74.4979 0 47.9924Z"/>
</mask>
<path d="M0 47.9924C0 21.4869 21.4869 0 47.9924 0C74.4979 0 95.9848 21.4869 95.9848 47.9924C95.9848 74.4979 74.4979 95.9848 47.9924 95.9848C21.4869 95.9848 0 74.4979 0 47.9924Z" fill="url(#paint0_linear_282_4154)"/>
<path d="M47.9924 95.9848V94.2746C22.4314 94.2746 1.7102 73.5534 1.7102 47.9924H0H-1.7102C-1.7102 75.4424 20.5424 97.695 47.9924 97.695V95.9848ZM95.9848 47.9924H94.2746C94.2746 73.5534 73.5534 94.2746 47.9924 94.2746V95.9848V97.695C75.4424 97.695 97.695 75.4424 97.695 47.9924H95.9848ZM47.9924 0V1.7102C73.5534 1.7102 94.2746 22.4314 94.2746 47.9924H95.9848H97.695C97.695 20.5424 75.4424 -1.7102 47.9924 -1.7102V0ZM47.9924 0V-1.7102C20.5424 -1.7102 -1.7102 20.5424 -1.7102 47.9924H0H1.7102C1.7102 22.4314 22.4314 1.7102 47.9924 1.7102V0Z" fill="#05DF72" fill-opacity="0.3" mask="url(#path-1-inside-1_282_4154)"/>
<path d="M67.5913 43.993C68.5045 48.4749 67.8537 53.1344 65.7473 57.1945C63.6409 61.2546 60.2062 64.4699 56.0161 66.3041C51.8261 68.1384 47.1338 68.4807 42.7218 67.2741C38.3099 66.0675 34.4449 63.3848 31.7715 59.6734C29.0981 55.962 27.7778 51.4463 28.0309 46.8794C28.2839 42.3124 30.095 37.9702 33.162 34.5769C36.2291 31.1836 40.3668 28.9443 44.885 28.2325C49.4033 27.5206 54.029 28.3792 57.9908 30.6652" stroke="#05DF72" stroke-width="3.99937" stroke-linecap="round" stroke-linejoin="round"/>
<path d="M41.9933 45.9927L47.9924 51.9917L67.9892 31.9949" stroke="#05DF72" stroke-width="3.99937" stroke-linecap="round" stroke-linejoin="round"/>
<defs>
<linearGradient id="paint0_linear_282_4154" x1="0" y1="0" x2="95.9848" y2="95.9848" gradientUnits="userSpaceOnUse">
<stop stop-color="#00C950" stop-opacity="0.2"/>
<stop offset="1" stop-color="#00B8DB" stop-opacity="0.2"/>
</linearGradient>
</defs>
</svg>
