<svg width="40" height="40" viewBox="0 0 40 40" fill="none" xmlns="http://www.w3.org/2000/svg">
<mask id="path-1-inside-1_866_2416" fill="white">
<path d="M0 19.9935C0 8.95139 8.95139 0 19.9935 0C31.0356 0 39.987 8.95139 39.987 19.9935C39.987 31.0356 31.0356 39.987 19.9935 39.987C8.95139 39.987 0 31.0356 0 19.9935Z"/>
</mask>
<path d="M0 19.9935C0 8.95139 8.95139 0 19.9935 0C31.0356 0 39.987 8.95139 39.987 19.9935C39.987 31.0356 31.0356 39.987 19.9935 39.987C8.95139 39.987 0 31.0356 0 19.9935Z" fill="#2B7FFF" fill-opacity="0.2"/>
<path d="M0 19.9935M39.987 19.9935M39.987 19.9935M0 19.9935M19.9935 0M39.987 19.9935M19.9935 39.987M0 19.9935M19.9935 39.987V38.2519C9.90962 38.2519 1.73503 30.0773 1.73503 19.9935H0H-1.73503C-1.73503 31.9938 7.99316 41.722 19.9935 41.722V39.987ZM39.987 19.9935H38.2519C38.2519 30.0773 30.0773 38.2519 19.9935 38.2519V39.987V41.722C31.9938 41.722 41.722 31.9938 41.722 19.9935H39.987ZM19.9935 0V1.73503C30.0773 1.73503 38.2519 9.90962 38.2519 19.9935H39.987H41.722C41.722 7.99316 31.9938 -1.73503 19.9935 -1.73503V0ZM19.9935 0V-1.73503C7.99316 -1.73503 -1.73503 7.99316 -1.73503 19.9935H0H1.73503C1.73503 9.90962 9.90962 1.73503 19.9935 1.73503V0Z" fill="#51A2FF" fill-opacity="0.3" mask="url(#path-1-inside-1_866_2416)"/>
<g clip-path="url(#clip0_866_2416)">
<path d="M28.1527 18.3283C28.5329 20.1942 28.262 22.134 27.3851 23.8243C26.5081 25.5146 25.0782 26.8531 23.3338 27.6168C21.5895 28.3804 19.636 28.5229 17.7992 28.0206C15.9625 27.5182 14.3534 26.4014 13.2405 24.8563C12.1275 23.3112 11.5779 21.4312 11.6832 19.5299C11.7885 17.6286 12.5425 15.8209 13.8194 14.4083C15.0962 12.9956 16.8188 12.0633 18.6998 11.767C20.5808 11.4706 22.5066 11.8281 24.1559 12.7797" stroke="#51A2FF" stroke-width="1.66499" stroke-linecap="round" stroke-linejoin="round"/>
<path d="M17.496 19.161L19.9935 21.6585L28.3184 13.3335" stroke="#51A2FF" stroke-width="1.66499" stroke-linecap="round" stroke-linejoin="round"/>
</g>
<defs>
<clipPath id="clip0_866_2416">
<rect width="19.9799" height="19.9799" fill="white" transform="translate(10.0035 10.0034)"/>
</clipPath>
</defs>
</svg>
