<svg width="40" height="40" viewBox="0 0 40 40" fill="none" xmlns="http://www.w3.org/2000/svg">
<mask id="path-1-inside-1_291_417" fill="white">
<path d="M0 19.9879C0 8.9489 8.9489 0 19.9879 0C31.0269 0 39.9758 8.9489 39.9758 19.9879C39.9758 31.0269 31.0269 39.9758 19.9879 39.9758C8.9489 39.9758 0 31.0269 0 19.9879Z"/>
</mask>
<path d="M0 19.9879C0 8.9489 8.9489 0 19.9879 0C31.0269 0 39.9758 8.9489 39.9758 19.9879C39.9758 31.0269 31.0269 39.9758 19.9879 39.9758C8.9489 39.9758 0 31.0269 0 19.9879Z" fill="#FB2C36" fill-opacity="0.2"/>
<path d="M19.9879 39.9758V38.2656C9.89342 38.2656 1.7102 30.0824 1.7102 19.9879H0H-1.7102C-1.7102 31.9715 8.00438 41.6861 19.9879 41.6861V39.9758ZM39.9758 19.9879H38.2656C38.2656 30.0824 30.0824 38.2656 19.9879 38.2656V39.9758V41.6861C31.9715 41.6861 41.6861 31.9715 41.6861 19.9879H39.9758ZM19.9879 0V1.7102C30.0824 1.7102 38.2656 9.89342 38.2656 19.9879H39.9758H41.6861C41.6861 8.00438 31.9715 -1.7102 19.9879 -1.7102V0ZM19.9879 0V-1.7102C8.00438 -1.7102 -1.7102 8.00438 -1.7102 19.9879H0H1.7102C1.7102 9.89342 9.89342 1.7102 19.9879 1.7102V0Z" fill="#FF6467" fill-opacity="0.3" mask="url(#path-1-inside-1_291_417)"/>
<path d="M18.3223 19.1553V24.1523" stroke="#FF6467" stroke-width="1.66566" stroke-linecap="round" stroke-linejoin="round"/>
<path d="M21.6536 19.1553V24.1523" stroke="#FF6467" stroke-width="1.66566" stroke-linecap="round" stroke-linejoin="round"/>
<path d="M25.8177 14.9912V26.6508C25.8177 27.0926 25.6422 27.5163 25.3299 27.8286C25.0175 28.141 24.5938 28.3165 24.1521 28.3165H15.8238C15.382 28.3165 14.9583 28.141 14.646 27.8286C14.3336 27.5163 14.1581 27.0926 14.1581 26.6508V14.9912" stroke="#FF6467" stroke-width="1.66566" stroke-linecap="round" stroke-linejoin="round"/>
<path d="M12.4925 14.9912H27.4834" stroke="#FF6467" stroke-width="1.66566" stroke-linecap="round" stroke-linejoin="round"/>
<path d="M16.6566 14.991V13.3253C16.6566 12.8836 16.8321 12.4599 17.1444 12.1475C17.4568 11.8352 17.8805 11.6597 18.3222 11.6597H21.6536C22.0953 11.6597 22.519 11.8352 22.8314 12.1475C23.1437 12.4599 23.3192 12.8836 23.3192 13.3253V14.991" stroke="#FF6467" stroke-width="1.66566" stroke-linecap="round" stroke-linejoin="round"/>
</svg>
