<svg width="18" height="18" viewBox="0 0 18 18" fill="none" xmlns="http://www.w3.org/2000/svg">
<g clip-path="url(#clip0_289_327)">
<path d="M1 15C1 13.9391 1.42143 12.9217 2.17157 12.1716C2.92172 11.4214 3.93913 11 5 11H13C14.0609 11 15.0783 11.4214 15.8284 12.1716C16.5786 12.9217 17 13.9391 17 15C17 15.5304 16.7893 16.0391 16.4142 16.4141C16.0391 16.7892 15.5304 16.9999 15 16.9999H3C2.46957 16.9999 1.96086 16.7892 1.58579 16.4141C1.21071 16.0391 1 15.5304 1 15Z" stroke="#206DFD" stroke-width="1.5" stroke-linejoin="round"/>
<path d="M9 6.99993C10.6569 6.99993 12 5.6568 12 3.99996C12 2.34313 10.6569 1 9 1C7.34315 1 6 2.34313 6 3.99996C6 5.6568 7.34315 6.99993 9 6.99993Z" stroke="#206DFD" stroke-width="1.5"/>
</g>
<defs>
<clipPath id="clip0_289_327">
<rect width="18" height="18" fill="white"/>
</clipPath>
</defs>
</svg>
