<svg width="40" height="40" viewBox="0 0 40 40" fill="none" xmlns="http://www.w3.org/2000/svg">
<mask id="path-1-inside-1_866_2425" fill="white">
<path d="M0 19.9935C0 8.95139 8.95139 0 19.9935 0C31.0356 0 39.987 8.95139 39.987 19.9935C39.987 31.0356 31.0356 39.987 19.9935 39.987C8.95139 39.987 0 31.0356 0 19.9935Z"/>
</mask>
<path d="M0 19.9935C0 8.95139 8.95139 0 19.9935 0C31.0356 0 39.987 8.95139 39.987 19.9935C39.987 31.0356 31.0356 39.987 19.9935 39.987C8.95139 39.987 0 31.0356 0 19.9935Z" fill="#FB2C36" fill-opacity="0.2"/>
<path d="M0 19.9935M39.987 19.9935M39.987 19.9935M0 19.9935M19.9935 0M39.987 19.9935M19.9935 39.987M0 19.9935M19.9935 39.987V38.2519C9.90962 38.2519 1.73503 30.0773 1.73503 19.9935H0H-1.73503C-1.73503 31.9938 7.99316 41.722 19.9935 41.722V39.987ZM39.987 19.9935H38.2519C38.2519 30.0773 30.0773 38.2519 19.9935 38.2519V39.987V41.722C31.9938 41.722 41.722 31.9938 41.722 19.9935H39.987ZM19.9935 0V1.73503C30.0773 1.73503 38.2519 9.90962 38.2519 19.9935H39.987H41.722C41.722 7.99316 31.9938 -1.73503 19.9935 -1.73503V0ZM19.9935 0V-1.73503C7.99316 -1.73503 -1.73503 7.99316 -1.73503 19.9935H0H1.73503C1.73503 9.90962 9.90962 1.73503 19.9935 1.73503V0Z" fill="#FF6467" fill-opacity="0.3" mask="url(#path-1-inside-1_866_2425)"/>
<g clip-path="url(#clip0_866_2425)">
<path d="M28.0937 24.9883L21.4337 13.3333C21.2885 13.0771 21.0779 12.864 20.8234 12.7157C20.5689 12.5674 20.2797 12.4893 19.9851 12.4893C19.6906 12.4893 19.4014 12.5674 19.1469 12.7157C18.8924 12.864 18.6818 13.0771 18.5366 13.3333L11.8766 24.9883C11.7299 25.2425 11.6529 25.531 11.6535 25.8245C11.6542 26.1181 11.7324 26.4062 11.8803 26.6598C12.0282 26.9133 12.2406 27.1233 12.4958 27.2683C12.751 27.4134 13.04 27.4884 13.3335 27.4858H26.6534C26.9456 27.4855 27.2325 27.4083 27.4853 27.262C27.7382 27.1158 27.9482 26.9056 28.0941 26.6525C28.24 26.3995 28.3168 26.1125 28.3167 25.8203C28.3166 25.5282 28.2397 25.2412 28.0937 24.9883Z" stroke="#FF6467" stroke-width="1.66499" stroke-linecap="round" stroke-linejoin="round"/>
<path d="M19.9935 17.4961V20.8261" stroke="#FF6467" stroke-width="1.66499" stroke-linecap="round" stroke-linejoin="round"/>
<path d="M19.9935 24.1558H20.0018" stroke="#FF6467" stroke-width="1.66499" stroke-linecap="round" stroke-linejoin="round"/>
</g>
<defs>
<clipPath id="clip0_866_2425">
<rect width="19.9799" height="19.9799" fill="white" transform="translate(10.0035 10.0034)"/>
</clipPath>
</defs>
</svg>
