<svg width="80" height="80" viewBox="0 0 80 80" fill="none" xmlns="http://www.w3.org/2000/svg">
<mask id="path-1-inside-1_282_1406" fill="white">
<path d="M0 39.9892C0 17.9038 17.9038 0 39.9892 0C62.0746 0 79.9784 17.9038 79.9784 39.9892C79.9784 62.0746 62.0746 79.9784 39.9892 79.9784C17.9038 79.9784 0 62.0746 0 39.9892Z"/>
</mask>
<path d="M0 39.9892C0 17.9038 17.9038 0 39.9892 0C62.0746 0 79.9784 17.9038 79.9784 39.9892C79.9784 62.0746 62.0746 79.9784 39.9892 79.9784C17.9038 79.9784 0 62.0746 0 39.9892Z" fill="url(#paint0_linear_282_1406)"/>
<path d="M39.9892 79.9784V78.2682C18.8483 78.2682 1.7102 61.1301 1.7102 39.9892H0H-1.7102C-1.7102 63.0192 16.9593 81.6886 39.9892 81.6886V79.9784ZM79.9784 39.9892H78.2682C78.2682 61.1301 61.1301 78.2682 39.9892 78.2682V79.9784V81.6886C63.0192 81.6886 81.6886 63.0192 81.6886 39.9892H79.9784ZM39.9892 0V1.7102C61.1301 1.7102 78.2682 18.8483 78.2682 39.9892H79.9784H81.6886C81.6886 16.9593 63.0192 -1.7102 39.9892 -1.7102V0ZM39.9892 0V-1.7102C16.9593 -1.7102 -1.7102 16.9593 -1.7102 39.9892H0H1.7102C1.7102 18.8483 18.8483 1.7102 39.9892 1.7102V0Z" fill="#00D3F2" fill-opacity="0.3" mask="url(#path-1-inside-1_282_1406)"/>
<path d="M56.6325 31.6609L41.6565 41.2001C41.1483 41.4953 40.5711 41.6508 39.9833 41.6508C39.3956 41.6508 38.8184 41.4953 38.3102 41.2001L23.3192 31.6609" stroke="#00D3F2" stroke-width="3.33132" stroke-linecap="round" stroke-linejoin="round"/>
<path d="M53.3011 26.6638H26.6506C24.8107 26.6638 23.3192 28.1553 23.3192 29.9951V49.9831C23.3192 51.8229 24.8107 53.3144 26.6506 53.3144H53.3011C55.141 53.3144 56.6325 51.8229 56.6325 49.9831V29.9951C56.6325 28.1553 55.141 26.6638 53.3011 26.6638Z" stroke="#00D3F2" stroke-width="3.33132" stroke-linecap="round" stroke-linejoin="round"/>
<defs>
<linearGradient id="paint0_linear_282_1406" x1="0" y1="0" x2="79.9784" y2="79.9784" gradientUnits="userSpaceOnUse">
<stop stop-color="#2B7FFF" stop-opacity="0.2"/>
<stop offset="1" stop-color="#AD46FF" stop-opacity="0.2"/>
</linearGradient>
</defs>
</svg>
