<svg width="40" height="40" viewBox="0 0 40 40" fill="none" xmlns="http://www.w3.org/2000/svg">
<mask id="path-1-inside-1_291_805" fill="white">
<path d="M0 19.9879C0 8.9489 8.9489 0 19.9879 0C31.0269 0 39.9758 8.9489 39.9758 19.9879C39.9758 31.0269 31.0269 39.9758 19.9879 39.9758C8.9489 39.9758 0 31.0269 0 19.9879Z"/>
</mask>
<path d="M0 19.9879C0 8.9489 8.9489 0 19.9879 0C31.0269 0 39.9758 8.9489 39.9758 19.9879C39.9758 31.0269 31.0269 39.9758 19.9879 39.9758C8.9489 39.9758 0 31.0269 0 19.9879Z" fill="#00C950" fill-opacity="0.2"/>
<path d="M0 19.9879M39.9758 19.9879M39.9758 19.9879M0 19.9879M19.9879 0M39.9758 19.9879M19.9879 39.9758M0 19.9879M19.9879 39.9758V38.2656C9.89342 38.2656 1.7102 30.0824 1.7102 19.9879H0H-1.7102C-1.7102 31.9715 8.00438 41.6861 19.9879 41.6861V39.9758ZM39.9758 19.9879H38.2656C38.2656 30.0824 30.0824 38.2656 19.9879 38.2656V39.9758V41.6861C31.9715 41.6861 41.6861 31.9715 41.6861 19.9879H39.9758ZM19.9879 0V1.7102C30.0824 1.7102 38.2656 9.89342 38.2656 19.9879H39.9758H41.6861C41.6861 8.00438 31.9715 -1.7102 19.9879 -1.7102V0ZM19.9879 0V-1.7102C8.00438 -1.7102 -1.7102 8.00438 -1.7102 19.9879H0H1.7102C1.7102 9.89342 9.89342 1.7102 19.9879 1.7102V0Z" fill="#05DF72" fill-opacity="0.3" mask="url(#path-1-inside-1_291_805)"/>
<path d="M22.8838 20.7295L24.1455 27.8302C24.1596 27.9138 24.1479 27.9997 24.1119 28.0765C24.0758 28.1533 24.0172 28.2172 23.9439 28.2598C23.8705 28.3023 23.786 28.3215 23.7014 28.3147C23.6169 28.3079 23.5365 28.2754 23.4709 28.2216L20.4894 25.9838C20.3454 25.8763 20.1706 25.8182 19.9909 25.8182C19.8113 25.8182 19.6364 25.8763 19.4925 25.9838L16.5059 28.2208C16.4404 28.2745 16.3601 28.3069 16.2757 28.3137C16.1912 28.3205 16.1067 28.3014 16.0334 28.259C15.9601 28.2166 15.9015 28.1528 15.8654 28.0762C15.8293 27.9996 15.8174 27.9137 15.8313 27.8302L17.0923 20.7295" stroke="#05DF72" stroke-width="1.66566" stroke-linecap="round" stroke-linejoin="round"/>
<path d="M19.9879 21.6536C22.7477 21.6536 24.9849 19.4164 24.9849 16.6566C24.9849 13.8969 22.7477 11.6597 19.9879 11.6597C17.2282 11.6597 14.991 13.8969 14.991 16.6566C14.991 19.4164 17.2282 21.6536 19.9879 21.6536Z" stroke="#05DF72" stroke-width="1.66566" stroke-linecap="round" stroke-linejoin="round"/>
</svg>
