<svg width="16" height="16" viewBox="0 0 16 16" fill="none" xmlns="http://www.w3.org/2000/svg">
<mask id="path-1-inside-1_291_729" fill="white">
<path d="M0 7.98983C0 3.57717 3.57717 0 7.98983 0C12.4025 0 15.9797 3.57717 15.9797 7.98983C15.9797 12.4025 12.4025 15.9797 7.98983 15.9797C3.57717 15.9797 0 12.4025 0 7.98983Z"/>
</mask>
<path d="M0 7.98983C0 3.57717 3.57717 0 7.98983 0C12.4025 0 15.9797 3.57717 15.9797 7.98983C15.9797 12.4025 12.4025 15.9797 7.98983 15.9797C3.57717 15.9797 0 12.4025 0 7.98983Z" fill="#00C950" fill-opacity="0.2"/>
<path d="M7.98983 15.9797V14.2695C4.52169 14.2695 1.7102 11.458 1.7102 7.98983H0H-1.7102C-1.7102 13.347 2.63265 17.6898 7.98983 17.6898V15.9797ZM15.9797 7.98983H14.2695C14.2695 11.458 11.458 14.2695 7.98983 14.2695V15.9797V17.6898C13.347 17.6898 17.6898 13.347 17.6898 7.98983H15.9797ZM7.98983 0V1.7102C11.458 1.7102 14.2695 4.52169 14.2695 7.98983H15.9797H17.6898C17.6898 2.63265 13.347 -1.7102 7.98983 -1.7102V0ZM7.98983 0V-1.7102C2.63265 -1.7102 -1.7102 2.63265 -1.7102 7.98983H0H1.7102C1.7102 4.52169 4.52169 1.7102 7.98983 1.7102V0Z" fill="#00C950" fill-opacity="0.3" mask="url(#path-1-inside-1_291_729)"/>
<path d="M3.98157 7.99003C3.98157 5.7837 5.77015 3.99512 7.97648 3.99512C10.1828 3.99512 11.9714 5.7837 11.9714 7.99003C11.9714 10.1964 10.1828 11.9849 7.97648 11.9849C5.77015 11.9849 3.98157 10.1964 3.98157 7.99003Z" fill="#05DF72"/>
</svg>
