<svg width="24" height="24" viewBox="0 0 24 24" fill="none" xmlns="http://www.w3.org/2000/svg">
<path d="M2.99951 11.9981C2.99951 13.7778 3.52727 15.5176 4.51605 16.9974C5.50482 18.4772 6.91021 19.6306 8.55448 20.3117C10.1988 20.9928 12.0081 21.171 13.7536 20.8238C15.4992 20.4765 17.1026 19.6195 18.361 18.361C19.6195 17.1026 20.4765 15.4992 20.8238 13.7536C21.171 12.0081 20.9928 10.1988 20.3117 8.55448C19.6306 6.91021 18.4772 5.50482 16.9974 4.51605C15.5176 3.52727 13.7778 2.99951 11.9981 2.99951C9.48244 3.00898 7.06784 3.99058 5.25915 5.73908L2.99951 7.99872" stroke="#787878" stroke-width="1.99968" stroke-linecap="round" stroke-linejoin="round"/>
<path d="M2.99951 2.99951V7.99951H7.99951" stroke="#787878" stroke-width="1.99968" stroke-linecap="round" stroke-linejoin="round"/>
<path d="M11.9981 6.99902V11.9982L15.9975 13.9979" stroke="white" stroke-opacity="0.4" stroke-width="1.99968" stroke-linecap="round" stroke-linejoin="round"/>
</svg>
