<svg width="24" height="24" viewBox="0 0 24 24" fill="none" xmlns="http://www.w3.org/2000/svg">
<path d="M14.9976 20.9966V12.9979C14.9976 12.7327 14.8923 12.4784 14.7048 12.2909C14.5173 12.1034 14.263 11.998 13.9978 11.998H9.99842C9.73325 11.998 9.47893 12.1034 9.29143 12.2909C9.10392 12.4784 8.99858 12.7327 8.99858 12.9979V20.9966" stroke="#787878" stroke-width="1.99968" stroke-linecap="round" stroke-linejoin="round"/>
<path d="M2.99953 9.99824C2.99946 9.70735 3.06285 9.41995 3.18529 9.15609C3.30772 8.89222 3.48625 8.65824 3.70841 8.47048L10.7073 2.47143C11.0682 2.16639 11.5255 1.99902 11.9981 1.99902C12.4707 1.99902 12.928 2.16639 13.2889 2.47143L20.2878 8.47048C20.51 8.65824 20.6885 8.89222 20.8109 9.15609C20.9334 9.41995 20.9967 9.70735 20.9967 9.99824V18.9968C20.9967 19.5272 20.786 20.0358 20.411 20.4108C20.036 20.7858 19.5273 20.9965 18.997 20.9965H4.99921C4.46886 20.9965 3.96023 20.7858 3.58522 20.4108C3.21021 20.0358 2.99953 19.5272 2.99953 18.9968V9.99824Z" stroke="#787878" stroke-width="1.99968" stroke-linecap="round" stroke-linejoin="round"/>
</svg>
