<svg width="20" height="20" viewBox="0 0 20 20" fill="none" xmlns="http://www.w3.org/2000/svg">
<path d="M4.16248 4.16256C4.16239 3.8696 4.2396 3.5818 4.38632 3.32822C4.53304 3.07465 4.74407 2.86427 4.9981 2.71834C5.25212 2.57241 5.54016 2.49609 5.83312 2.49708C6.12608 2.49807 6.41359 2.57635 6.66663 2.724L16.6541 8.54982C16.9061 8.69607 17.1154 8.90591 17.2609 9.15837C17.4065 9.41084 17.4832 9.69708 17.4835 9.98848C17.4837 10.2799 17.4075 10.5663 17.2624 10.819C17.1173 11.0717 16.9084 11.2819 16.6566 11.4286L6.66663 17.2561C6.41359 17.4037 6.12608 17.482 5.83312 17.483C5.54016 17.484 5.25212 17.4077 4.9981 17.2617C4.74407 17.1158 4.53304 16.9054 4.38632 16.6519C4.2396 16.3983 4.16239 16.1105 4.16248 15.8175V4.16256Z" stroke="#05DF72" stroke-width="1.66499" stroke-linecap="round" stroke-linejoin="round"/>
</svg>
