<svg width="40" height="40" viewBox="0 0 40 40" fill="none" xmlns="http://www.w3.org/2000/svg">
<mask id="path-1-inside-1_291_401" fill="white">
<path d="M0 19.9879C0 8.9489 8.9489 0 19.9879 0C31.0269 0 39.9758 8.9489 39.9758 19.9879C39.9758 31.0269 31.0269 39.9758 19.9879 39.9758C8.9489 39.9758 0 31.0269 0 19.9879Z"/>
</mask>
<path d="M0 19.9879C0 8.9489 8.9489 0 19.9879 0C31.0269 0 39.9758 8.9489 39.9758 19.9879C39.9758 31.0269 31.0269 39.9758 19.9879 39.9758C8.9489 39.9758 0 31.0269 0 19.9879Z" fill="#2B7FFF" fill-opacity="0.2"/>
<path d="M19.9879 39.9758V38.2656C9.89342 38.2656 1.7102 30.0824 1.7102 19.9879H0H-1.7102C-1.7102 31.9715 8.00438 41.6861 19.9879 41.6861V39.9758ZM39.9758 19.9879H38.2656C38.2656 30.0824 30.0824 38.2656 19.9879 38.2656V39.9758V41.6861C31.9715 41.6861 41.6861 31.9715 41.6861 19.9879H39.9758ZM19.9879 0V1.7102C30.0824 1.7102 38.2656 9.89342 38.2656 19.9879H39.9758H41.6861C41.6861 8.00438 31.9715 -1.7102 19.9879 -1.7102V0ZM19.9879 0V-1.7102C8.00438 -1.7102 -1.7102 8.00438 -1.7102 19.9879H0H1.7102C1.7102 9.89342 9.89342 1.7102 19.9879 1.7102V0Z" fill="#51A2FF" fill-opacity="0.3" mask="url(#path-1-inside-1_291_401)"/>
<g clip-path="url(#clip0_291_401)">
<path d="M18.5454 27.4834C18.6916 27.7366 18.9019 27.9468 19.1551 28.093C19.4083 28.2392 19.6955 28.3162 19.9879 28.3162C20.2803 28.3162 20.5675 28.2392 20.8207 28.093C21.0739 27.9468 21.2842 27.7366 21.4304 27.4834" stroke="#51A2FF" stroke-width="1.66566" stroke-linecap="round" stroke-linejoin="round"/>
<path d="M12.7107 22.758C12.6019 22.8772 12.5301 23.0255 12.504 23.1848C12.4779 23.3441 12.4987 23.5075 12.5638 23.6553C12.629 23.803 12.7356 23.9286 12.8708 24.0168C13.006 24.105 13.1639 24.152 13.3253 24.1521H26.6506C26.812 24.1522 26.9699 24.1053 27.1052 24.0173C27.2405 23.9292 27.3472 23.8038 27.4125 23.6562C27.4778 23.5086 27.4988 23.3452 27.4729 23.1859C27.4471 23.0265 27.3755 22.8782 27.2669 22.7588C26.1592 21.617 24.9849 20.4036 24.9849 16.6566C24.9849 15.3314 24.4585 14.0604 23.5213 13.1232C22.5842 12.1861 21.3132 11.6597 19.9879 11.6597C18.6627 11.6597 17.3917 12.1861 16.4545 13.1232C15.5174 14.0604 14.991 15.3314 14.991 16.6566C14.991 20.4036 13.8158 21.617 12.7107 22.758Z" stroke="#51A2FF" stroke-width="1.66566" stroke-linecap="round" stroke-linejoin="round"/>
</g>
<defs>
<clipPath id="clip0_291_401">
<rect width="19.9879" height="19.9879" fill="white" transform="translate(9.99396 9.99414)"/>
</clipPath>
</defs>
</svg>
