<svg width="18" height="18" viewBox="0 0 18 18" fill="none" xmlns="http://www.w3.org/2000/svg">
<g clip-path="url(#clip0_1172_2318)">
<path d="M16.476 12.6713V14.9181C16.4768 15.1266 16.4341 15.3331 16.3505 15.5242C16.267 15.7153 16.1444 15.8868 15.9907 16.0278C15.8371 16.1689 15.6556 16.2762 15.458 16.343C15.2604 16.4098 15.0511 16.4347 14.8434 16.4159C12.5388 16.1655 10.3252 15.378 8.38028 14.1167C6.57079 12.9669 5.03666 11.4328 3.88683 9.62329C2.62116 7.66954 1.83351 5.44512 1.58768 3.13025C1.56897 2.92315 1.59358 2.71443 1.65995 2.51736C1.72632 2.3203 1.833 2.13921 1.9732 1.98564C2.11339 1.83206 2.28402 1.70935 2.47423 1.62534C2.66445 1.54132 2.87007 1.49783 3.07801 1.49763H5.32474C5.68819 1.49405 6.04054 1.62276 6.31611 1.85975C6.59169 2.09675 6.77168 2.42586 6.82255 2.78575C6.91738 3.50476 7.09324 4.21072 7.34679 4.89019C7.44755 5.15824 7.46936 5.44956 7.40963 5.72962C7.3499 6.00969 7.21113 6.26676 7.00978 6.47038L6.05867 7.4215C7.12478 9.29642 8.67719 10.8488 10.5521 11.9149L11.5032 10.9638C11.7068 10.7625 11.9639 10.6237 12.244 10.564C12.5241 10.5043 12.8154 10.5261 13.0834 10.6268C13.7629 10.8804 14.4689 11.0562 15.1879 11.1511C15.5517 11.2024 15.8839 11.3856 16.1214 11.6659C16.3589 11.9462 16.4851 12.3041 16.476 12.6713Z" stroke="#51A2FF" stroke-width="1.49782" stroke-linecap="round" stroke-linejoin="round"/>
</g>
<defs>
<clipPath id="clip0_1172_2318">
<rect width="17.9738" height="17.9738" fill="white"/>
</clipPath>
</defs>
</svg>
