<svg width="40" height="40" viewBox="0 0 40 40" fill="none" xmlns="http://www.w3.org/2000/svg">
<mask id="path-1-inside-1_288_167" fill="white">
<path d="M0 19.9879C0 8.9489 8.9489 0 19.9879 0C31.0269 0 39.9758 8.9489 39.9758 19.9879C39.9758 31.0269 31.0269 39.9758 19.9879 39.9758C8.9489 39.9758 0 31.0269 0 19.9879Z"/>
</mask>
<path d="M0 19.9879C0 8.9489 8.9489 0 19.9879 0C31.0269 0 39.9758 8.9489 39.9758 19.9879C39.9758 31.0269 31.0269 39.9758 19.9879 39.9758C8.9489 39.9758 0 31.0269 0 19.9879Z" fill="#FB2C36" fill-opacity="0.2"/>
<path d="M19.9879 39.9758V38.2656C9.89342 38.2656 1.7102 30.0824 1.7102 19.9879H0H-1.7102C-1.7102 31.9715 8.00438 41.6861 19.9879 41.6861V39.9758ZM39.9758 19.9879H38.2656C38.2656 30.0824 30.0824 38.2656 19.9879 38.2656V39.9758V41.6861C31.9715 41.6861 41.6861 31.9715 41.6861 19.9879H39.9758ZM19.9879 0V1.7102C30.0824 1.7102 38.2656 9.89342 38.2656 19.9879H39.9758H41.6861C41.6861 8.00438 31.9715 -1.7102 19.9879 -1.7102V0ZM19.9879 0V-1.7102C8.00438 -1.7102 -1.7102 8.00438 -1.7102 19.9879H0H1.7102C1.7102 9.89342 9.89342 1.7102 19.9879 1.7102V0Z" fill="#FB2C36" fill-opacity="0.3" mask="url(#path-1-inside-1_288_167)"/>
<g clip-path="url(#clip0_288_167)">
<path d="M19.9879 14.9912V19.9882L23.3192 21.6539" stroke="#FF6467" stroke-width="1.66566" stroke-linecap="round" stroke-linejoin="round"/>
<path d="M19.9879 28.3163C24.5875 28.3163 28.3162 24.5876 28.3162 19.988C28.3162 15.3884 24.5875 11.6597 19.9879 11.6597C15.3883 11.6597 11.6596 15.3884 11.6596 19.988C11.6596 24.5876 15.3883 28.3163 19.9879 28.3163Z" stroke="#FF6467" stroke-width="1.66566" stroke-linecap="round" stroke-linejoin="round"/>
</g>
<defs>
<clipPath id="clip0_288_167">
<rect width="19.9879" height="19.9879" fill="white" transform="translate(9.99396 9.99414)"/>
</clipPath>
</defs>
</svg>
