<svg width="18" height="18" viewBox="0 0 18 18" fill="none" xmlns="http://www.w3.org/2000/svg">
<path d="M11.9825 7.48926H13.4804" stroke="#51A2FF" stroke-width="1.49782" stroke-linecap="round" stroke-linejoin="round"/>
<path d="M11.9825 10.4849H13.4804" stroke="#51A2FF" stroke-width="1.49782" stroke-linecap="round" stroke-linejoin="round"/>
<path d="M4.62079 11.2336C4.77517 10.7947 5.06197 10.4146 5.44161 10.1457C5.82124 9.87684 6.27498 9.73242 6.7402 9.73242C7.20541 9.73242 7.65916 9.87684 8.03879 10.1457C8.41843 10.4146 8.70523 10.7947 8.85961 11.2336" stroke="#51A2FF" stroke-width="1.49782" stroke-linecap="round" stroke-linejoin="round"/>
<path d="M6.74019 9.73587C7.56741 9.73587 8.238 9.06527 8.238 8.23805C8.238 7.41083 7.56741 6.74023 6.74019 6.74023C5.91297 6.74023 5.24237 7.41083 5.24237 8.23805C5.24237 9.06527 5.91297 9.73587 6.74019 9.73587Z" stroke="#51A2FF" stroke-width="1.49782" stroke-linecap="round" stroke-linejoin="round"/>
<path d="M14.9782 3.74463H2.99562C2.1684 3.74463 1.4978 4.41522 1.4978 5.24245V12.7315C1.4978 13.5588 2.1684 14.2293 2.99562 14.2293H14.9782C15.8054 14.2293 16.476 13.5588 16.476 12.7315V5.24245C16.476 4.41522 15.8054 3.74463 14.9782 3.74463Z" stroke="#51A2FF" stroke-width="1.49782" stroke-linecap="round" stroke-linejoin="round"/>
</svg>
