<svg width="20" height="20" viewBox="0 0 20 20" fill="none" xmlns="http://www.w3.org/2000/svg">
<path d="M8.05432 3.44459C8.1002 2.96183 8.32443 2.51352 8.68319 2.18725C9.04195 1.86097 9.50946 1.68018 9.99439 1.68018C10.4793 1.68018 10.9468 1.86097 11.3056 2.18725C11.6644 2.51352 11.8886 2.96183 11.9345 3.44459C11.9621 3.75644 12.0644 4.05707 12.2327 4.32101C12.4011 4.58495 12.6306 4.80444 12.9018 4.9609C13.1729 5.11736 13.4778 5.20619 13.7906 5.21987C14.1034 5.23354 14.4148 5.17166 14.6986 5.03946C15.1393 4.83939 15.6386 4.81044 16.0995 4.95824C16.5603 5.10604 16.9496 5.42002 17.1917 5.83906C17.4338 6.2581 17.5113 6.75223 17.4092 7.22528C17.3071 7.69833 17.0326 8.11644 16.6391 8.39826C16.3829 8.57803 16.1738 8.81685 16.0294 9.09453C15.885 9.37221 15.8097 9.68058 15.8097 9.99355C15.8097 10.3065 15.885 10.6149 16.0294 10.8926C16.1738 11.1702 16.3829 11.4091 16.6391 11.5888C17.0326 11.8707 17.3071 12.2888 17.4092 12.7618C17.5113 13.2349 17.4338 13.729 17.1917 14.148C16.9496 14.5671 16.5603 14.8811 16.0995 15.0289C15.6386 15.1767 15.1393 15.1477 14.6986 14.9476C14.4148 14.8154 14.1034 14.7536 13.7906 14.7672C13.4778 14.7809 13.1729 14.8697 12.9018 15.0262C12.6306 15.1827 12.4011 15.4021 12.2327 15.6661C12.0644 15.93 11.9621 16.2307 11.9345 16.5425C11.8886 17.0253 11.6644 17.4736 11.3056 17.7998C10.9468 18.1261 10.4793 18.3069 9.99439 18.3069C9.50946 18.3069 9.04195 18.1261 8.68319 17.7998C8.32443 17.4736 8.1002 17.0253 8.05432 16.5425C8.02679 16.2305 7.92448 15.9298 7.75605 15.6658C7.58763 15.4017 7.35805 15.1822 7.08676 15.0257C6.81547 14.8692 6.51047 14.7804 6.19759 14.7668C5.8847 14.7532 5.57315 14.8153 5.28932 14.9476C4.84866 15.1477 4.34933 15.1767 3.8885 15.0289C3.42767 14.8811 3.03832 14.5671 2.79623 14.148C2.55413 13.729 2.47661 13.2349 2.57876 12.7618C2.6809 12.2888 2.9554 11.8707 3.34883 11.5888C3.60502 11.4091 3.81415 11.1702 3.95853 10.8926C4.10291 10.6149 4.17829 10.3065 4.17829 9.99355C4.17829 9.68058 4.10291 9.37221 3.95853 9.09453C3.81415 8.81685 3.60502 8.57803 3.34883 8.39826C2.95595 8.1163 2.68194 7.69835 2.58004 7.22562C2.47814 6.7529 2.55564 6.25917 2.79748 5.8404C3.03931 5.42163 3.4282 5.10773 3.88857 4.95971C4.34894 4.81168 4.84791 4.84011 5.28849 5.03946C5.57228 5.17166 5.88375 5.23354 6.19652 5.21987C6.5093 5.20619 6.81418 5.11736 7.08535 4.9609C7.35652 4.80444 7.58601 4.58495 7.75439 4.32101C7.92276 4.05707 8.02507 3.75644 8.05265 3.44459" stroke="#206DFD" stroke-width="1.66566" stroke-linecap="round" stroke-linejoin="round"/>
<path d="M9.99397 12.4926C11.3739 12.4926 12.4925 11.374 12.4925 9.9941C12.4925 8.61422 11.3739 7.49561 9.99397 7.49561C8.6141 7.49561 7.49548 8.61422 7.49548 9.9941C7.49548 11.374 8.6141 12.4926 9.99397 12.4926Z" stroke="#206DFD" stroke-width="1.66566" stroke-linecap="round" stroke-linejoin="round"/>
</svg>
