<svg width="20" height="20" viewBox="0 0 20 20" fill="none" xmlns="http://www.w3.org/2000/svg">
<path d="M13.32 17.4823V15.8173C13.32 14.9341 12.9691 14.0871 12.3446 13.4626C11.7201 12.8381 10.8731 12.4873 9.98998 12.4873H4.995C4.11183 12.4873 3.26483 12.8381 2.64034 13.4626C2.01585 14.0871 1.66501 14.9341 1.66501 15.8173V17.4823" stroke="#51A2FF" stroke-width="1.66499" stroke-linecap="round" stroke-linejoin="round"/>
<path d="M13.3199 2.604C14.034 2.78913 14.6664 3.20612 15.1179 3.78953C15.5693 4.37294 15.8143 5.08975 15.8143 5.82743C15.8143 6.56512 15.5693 7.28192 15.1179 7.86533C14.6664 8.44874 14.034 8.86574 13.3199 9.05086" stroke="#51A2FF" stroke-width="1.66499" stroke-linecap="round" stroke-linejoin="round"/>
<path d="M18.3149 17.4825V15.8175C18.3144 15.0796 18.0688 14.3629 17.6168 13.7798C17.1647 13.1966 16.5318 12.7802 15.8174 12.5957" stroke="#51A2FF" stroke-width="1.66499" stroke-linecap="round" stroke-linejoin="round"/>
<path d="M7.49246 9.15753C9.33156 9.15753 10.8225 7.66665 10.8225 5.82755C10.8225 3.98844 9.33156 2.49756 7.49246 2.49756C5.65336 2.49756 4.16248 3.98844 4.16248 5.82755C4.16248 7.66665 5.65336 9.15753 7.49246 9.15753Z" stroke="#51A2FF" stroke-width="1.66499" stroke-linecap="round" stroke-linejoin="round"/>
</svg>
