<svg width="40" height="40" viewBox="0 0 40 40" fill="none" xmlns="http://www.w3.org/2000/svg">
<mask id="path-1-inside-1_866_2396" fill="white">
<path d="M0 19.9935C0 8.95139 8.95139 0 19.9935 0C31.0356 0 39.987 8.95139 39.987 19.9935C39.987 31.0356 31.0356 39.987 19.9935 39.987C8.95139 39.987 0 31.0356 0 19.9935Z"/>
</mask>
<path d="M0 19.9935C0 8.95139 8.95139 0 19.9935 0C31.0356 0 39.987 8.95139 39.987 19.9935C39.987 31.0356 31.0356 39.987 19.9935 39.987C8.95139 39.987 0 31.0356 0 19.9935Z" fill="#00B8DB" fill-opacity="0.2"/>
<path d="M0 19.9935M39.987 19.9935M39.987 19.9935M0 19.9935M19.9935 0M39.987 19.9935M19.9935 39.987M0 19.9935M19.9935 39.987V38.2519C9.90962 38.2519 1.73503 30.0773 1.73503 19.9935H0H-1.73503C-1.73503 31.9938 7.99316 41.722 19.9935 41.722V39.987ZM39.987 19.9935H38.2519C38.2519 30.0773 30.0773 38.2519 19.9935 38.2519V39.987V41.722C31.9938 41.722 41.722 31.9938 41.722 19.9935H39.987ZM19.9935 0V1.73503C30.0773 1.73503 38.2519 9.90962 38.2519 19.9935H39.987H41.722C41.722 7.99316 31.9938 -1.73503 19.9935 -1.73503V0ZM19.9935 0V-1.73503C7.99316 -1.73503 -1.73503 7.99316 -1.73503 19.9935H0H1.73503C1.73503 9.90962 9.90962 1.73503 19.9935 1.73503V0Z" fill="#00D3F3" fill-opacity="0.3" mask="url(#path-1-inside-1_866_2396)"/>
<path d="M23.3234 27.4857V25.8207C23.3234 24.9375 22.9726 24.0905 22.3481 23.4661C21.7236 22.8416 20.8766 22.4907 19.9934 22.4907H14.9985C14.1153 22.4907 13.2683 22.8416 12.6438 23.4661C12.0193 24.0905 11.6685 24.9375 11.6685 25.8207V27.4857" stroke="#00D3F2" stroke-width="1.66499" stroke-linecap="round" stroke-linejoin="round"/>
<path d="M17.496 19.1609C19.3351 19.1609 20.826 17.6701 20.826 15.831C20.826 13.9919 19.3351 12.501 17.496 12.501C15.6569 12.501 14.166 13.9919 14.166 15.831C14.166 17.6701 15.6569 19.1609 17.496 19.1609Z" stroke="#00D3F2" stroke-width="1.66499" stroke-linecap="round" stroke-linejoin="round"/>
<path d="M28.3184 27.4859V25.8209C28.3179 25.0831 28.0723 24.3663 27.6203 23.7832C27.1682 23.2001 26.5353 22.7836 25.8209 22.5991" stroke="#00D3F2" stroke-width="1.66499" stroke-linecap="round" stroke-linejoin="round"/>
<path d="M23.3235 12.6089C24.0397 12.7923 24.6746 13.2089 25.128 13.793C25.5814 14.377 25.8275 15.0954 25.8275 15.8348C25.8275 16.5742 25.5814 17.2926 25.128 17.8767C24.6746 18.4607 24.0397 18.8773 23.3235 19.0607" stroke="#00D3F2" stroke-width="1.66499" stroke-linecap="round" stroke-linejoin="round"/>
</svg>
