<svg width="40" height="40" viewBox="0 0 40 40" fill="none" xmlns="http://www.w3.org/2000/svg">
<mask id="path-1-inside-1_291_817" fill="white">
<path d="M0 19.9879C0 8.9489 8.9489 0 19.9879 0C31.0269 0 39.9758 8.9489 39.9758 19.9879C39.9758 31.0269 31.0269 39.9758 19.9879 39.9758C8.9489 39.9758 0 31.0269 0 19.9879Z"/>
</mask>
<path d="M0 19.9879C0 8.9489 8.9489 0 19.9879 0C31.0269 0 39.9758 8.9489 39.9758 19.9879C39.9758 31.0269 31.0269 39.9758 19.9879 39.9758C8.9489 39.9758 0 31.0269 0 19.9879Z" fill="#F0B100" fill-opacity="0.2"/>
<path d="M0 19.9879M39.9758 19.9879M39.9758 19.9879M0 19.9879M19.9879 0M39.9758 19.9879M19.9879 39.9758M0 19.9879M19.9879 39.9758V38.2656C9.89342 38.2656 1.7102 30.0824 1.7102 19.9879H0H-1.7102C-1.7102 31.9715 8.00438 41.6861 19.9879 41.6861V39.9758ZM39.9758 19.9879H38.2656C38.2656 30.0824 30.0824 38.2656 19.9879 38.2656V39.9758V41.6861C31.9715 41.6861 41.6861 31.9715 41.6861 19.9879H39.9758ZM19.9879 0V1.7102C30.0824 1.7102 38.2656 9.89342 38.2656 19.9879H39.9758H41.6861C41.6861 8.00438 31.9715 -1.7102 19.9879 -1.7102V0ZM19.9879 0V-1.7102C8.00438 -1.7102 -1.7102 8.00438 -1.7102 19.9879H0H1.7102C1.7102 9.89342 9.89342 1.7102 19.9879 1.7102V0Z" fill="#FDC700" fill-opacity="0.3" mask="url(#path-1-inside-1_291_817)"/>
<g clip-path="url(#clip0_291_817)">
<path d="M28.3163 24.1523C28.3163 24.5941 28.1408 25.0177 27.8284 25.3301C27.516 25.6425 27.0924 25.818 26.6506 25.818H15.6806C15.2388 25.8181 14.8152 25.9936 14.503 26.306L12.6691 28.1399C12.5864 28.2226 12.481 28.2789 12.3663 28.3017C12.2516 28.3245 12.1327 28.3128 12.0247 28.268C11.9167 28.2233 11.8243 28.1475 11.7593 28.0503C11.6944 27.9531 11.6597 27.8387 11.6597 27.7218V14.1583C11.6597 13.7166 11.8352 13.2929 12.1475 12.9805C12.4599 12.6682 12.8836 12.4927 13.3253 12.4927H26.6506C27.0924 12.4927 27.516 12.6682 27.8284 12.9805C28.1408 13.2929 28.3163 13.7166 28.3163 14.1583V24.1523Z" stroke="#FDC700" stroke-width="1.66566" stroke-linecap="round" stroke-linejoin="round"/>
</g>
<defs>
<clipPath id="clip0_291_817">
<rect width="19.9879" height="19.9879" fill="white" transform="translate(9.99402 9.99414)"/>
</clipPath>
</defs>
</svg>
