<svg width="64" height="64" viewBox="0 0 64 64" fill="none" xmlns="http://www.w3.org/2000/svg">
<mask id="path-1-inside-1_291_538" fill="white">
<path d="M0 31.9994C0 14.3266 14.3266 0 31.9994 0C49.6722 0 63.9988 14.3266 63.9988 31.9994C63.9988 49.6722 49.6722 63.9988 31.9994 63.9988C14.3266 63.9988 0 49.6722 0 31.9994Z"/>
</mask>
<path d="M0 31.9994C0 14.3266 14.3266 0 31.9994 0C49.6722 0 63.9988 14.3266 63.9988 31.9994C63.9988 49.6722 49.6722 63.9988 31.9994 63.9988C14.3266 63.9988 0 49.6722 0 31.9994Z" fill="#FB2C36" fill-opacity="0.2"/>
<path d="M0 31.9994M63.9988 31.9994M63.9988 31.9994M0 31.9994M31.9994 0M63.9988 31.9994M31.9994 63.9988M0 31.9994M31.9994 63.9988V62.2886C15.2711 62.2886 1.7102 48.7276 1.7102 31.9994H0H-1.7102C-1.7102 50.6167 13.3821 65.709 31.9994 65.709V63.9988ZM63.9988 31.9994H62.2886C62.2886 48.7276 48.7276 62.2886 31.9994 62.2886V63.9988V65.709C50.6167 65.709 65.709 50.6167 65.709 31.9994H63.9988ZM31.9994 0V1.7102C48.7276 1.7102 62.2886 15.2711 62.2886 31.9994H63.9988H65.709C65.709 13.3821 50.6167 -1.7102 31.9994 -1.7102V0ZM31.9994 0V-1.7102C13.3821 -1.7102 -1.7102 13.3821 -1.7102 31.9994H0H1.7102C1.7102 15.2711 15.2711 1.7102 31.9994 1.7102V0Z" fill="#FB2C36" fill-opacity="0.3" mask="url(#path-1-inside-1_291_538)"/>
<path d="M29.3339 30.6665V38.663" stroke="#FF6467" stroke-width="2.6655" stroke-linecap="round" stroke-linejoin="round"/>
<path d="M34.6649 30.6665V38.663" stroke="#FF6467" stroke-width="2.6655" stroke-linecap="round" stroke-linejoin="round"/>
<path d="M41.3286 24.0029V42.6614C41.3286 43.3684 41.0477 44.0464 40.5479 44.5462C40.048 45.0461 39.37 45.3269 38.6631 45.3269H25.3355C24.6286 45.3269 23.9506 45.0461 23.4508 44.5462C22.9509 44.0464 22.67 43.3684 22.67 42.6614V24.0029" stroke="#FF6467" stroke-width="2.6655" stroke-linecap="round" stroke-linejoin="round"/>
<path d="M20.0046 24.0029H43.9942" stroke="#FF6467" stroke-width="2.6655" stroke-linecap="round" stroke-linejoin="round"/>
<path d="M26.6683 24.0029V21.3374C26.6683 20.6304 26.9492 19.9525 27.449 19.4526C27.9489 18.9527 28.6269 18.6719 29.3338 18.6719H34.6648C35.3718 18.6719 36.0498 18.9527 36.5496 19.4526C37.0495 19.9525 37.3303 20.6304 37.3303 21.3374V24.0029" stroke="#FF6467" stroke-width="2.6655" stroke-linecap="round" stroke-linejoin="round"/>
</svg>
