<svg width="260" height="271" viewBox="0 0 260 271" fill="none" xmlns="http://www.w3.org/2000/svg">
<g filter="url(#filter0_d_10_2)">
<mask id="path-1-inside-1_10_2" fill="white">
<path d="M51.9758 87.9924C51.9758 65.901 69.8844 47.9924 91.9758 47.9924H171.959C194.051 47.9924 211.959 65.901 211.959 87.9924V167.976C211.959 190.067 194.051 207.976 171.959 207.976H91.9759C69.8845 207.976 51.9758 190.067 51.9758 167.976V87.9924Z"/>
</mask>
<path d="M51.9758 87.9924C51.9758 65.901 69.8844 47.9924 91.9758 47.9924H171.959C194.051 47.9924 211.959 65.901 211.959 87.9924V167.976C211.959 190.067 194.051 207.976 171.959 207.976H91.9759C69.8845 207.976 51.9758 190.067 51.9758 167.976V87.9924Z" fill="url(#paint0_linear_10_2)" shape-rendering="crispEdges"/>
<path d="M91.9758 47.9924V49.7026H171.959V47.9924V46.2822H91.9758V47.9924ZM211.959 87.9924H210.249V167.976H211.959H213.67V87.9924H211.959ZM171.959 207.976V206.266H91.9759V207.976V209.686H171.959V207.976ZM51.9758 167.976H53.686V87.9924H51.9758H50.2656V167.976H51.9758ZM91.9759 207.976V206.266C70.829 206.266 53.686 189.123 53.686 167.976H51.9758H50.2656C50.2656 191.012 68.94 209.686 91.9759 209.686V207.976ZM211.959 167.976H210.249C210.249 189.123 193.106 206.266 171.959 206.266V207.976V209.686C194.995 209.686 213.67 191.012 213.67 167.976H211.959ZM171.959 47.9924V49.7026C193.106 49.7026 210.249 66.8455 210.249 87.9924H211.959H213.67C213.67 64.9565 194.995 46.2822 171.959 46.2822V47.9924ZM91.9758 47.9924V46.2822C68.9399 46.2822 50.2656 64.9565 50.2656 87.9924H51.9758H53.686C53.686 66.8455 70.829 49.7026 91.9758 49.7026V47.9924Z" fill="#C27AFF" fill-opacity="0.3" mask="url(#path-1-inside-1_10_2)"/>
<g opacity="0.523615">
<rect width="156.563" height="156.563" transform="translate(53.686 49.7026)" fill="url(#paint1_linear_10_2)"/>
</g>
<g opacity="0.0100845">
<path d="M74.7195 179.277C74.7195 175.988 77.3859 173.321 80.675 173.321V173.321C83.9641 173.321 86.6305 175.988 86.6305 179.277V179.277C86.6305 182.566 83.9641 185.232 80.675 185.232V185.232C77.3859 185.232 74.7195 182.566 74.7195 179.277V179.277Z" fill="#8EC5FF"/>
</g>
<path d="M131.968 111.322V157.976" stroke="#C27AFF" stroke-width="6.66487" stroke-linecap="round" stroke-linejoin="round"/>
<path d="M101.976 147.979C101.092 147.979 100.244 147.628 99.6194 147.003C98.9944 146.378 98.6433 145.53 98.6433 144.646V101.325C98.6433 100.441 98.9944 99.5932 99.6194 98.9683C100.244 98.3433 101.092 97.9922 101.976 97.9922H118.638C122.173 97.9922 125.564 99.3966 128.063 101.896C130.563 104.396 131.968 107.787 131.968 111.322C131.968 107.787 133.372 104.396 135.872 101.896C138.372 99.3966 141.762 97.9922 145.297 97.9922H161.96C162.843 97.9922 163.691 98.3433 164.316 98.9683C164.941 99.5932 165.292 100.441 165.292 101.325V144.646C165.292 145.53 164.941 146.378 164.316 147.003C163.691 147.628 162.843 147.979 161.96 147.979H141.965C139.314 147.979 136.771 149.032 134.896 150.907C133.021 152.782 131.968 155.325 131.968 157.976C131.968 155.325 130.914 152.782 129.04 150.907C127.165 149.032 124.622 147.979 121.97 147.979H101.976Z" stroke="#C27AFF" stroke-width="6.66487" stroke-linecap="round" stroke-linejoin="round"/>
</g>
<g filter="url(#filter1_dd_10_2)">
<mask id="path-6-inside-2_10_2" fill="white">
<path d="M163.967 31.6216C163.967 22.785 171.13 15.6216 179.967 15.6216H227.945C236.782 15.6216 243.945 22.785 243.945 31.6216V79.6C243.945 88.4366 236.782 95.6 227.945 95.6H179.967C171.13 95.6 163.967 88.4366 163.967 79.6V31.6216Z"/>
</mask>
<path d="M163.967 31.6216C163.967 22.785 171.13 15.6216 179.967 15.6216H227.945C236.782 15.6216 243.945 22.785 243.945 31.6216V79.6C243.945 88.4366 236.782 95.6 227.945 95.6H179.967C171.13 95.6 163.967 88.4366 163.967 79.6V31.6216Z" fill="url(#paint2_linear_10_2)" shape-rendering="crispEdges"/>
<path d="M179.967 15.6216V17.3318H227.945V15.6216V13.9114H179.967V15.6216ZM243.945 31.6216H242.235V79.6H243.945H245.656V31.6216H243.945ZM227.945 95.6V93.8898H179.967V95.6V97.3102H227.945V95.6ZM163.967 79.6H165.677V31.6216H163.967H162.257V79.6H163.967ZM179.967 95.6V93.8898C172.075 93.8898 165.677 87.492 165.677 79.6H163.967H162.257C162.257 89.3811 170.186 97.3102 179.967 97.3102V95.6ZM243.945 79.6H242.235C242.235 87.4921 235.838 93.8898 227.945 93.8898V95.6V97.3102C237.727 97.3102 245.656 89.3811 245.656 79.6H243.945ZM227.945 15.6216V17.3318C235.838 17.3318 242.235 23.7295 242.235 31.6216H243.945H245.656C245.656 21.8405 237.727 13.9114 227.945 13.9114V15.6216ZM179.967 15.6216V13.9114C170.186 13.9114 162.257 21.8405 162.257 31.6216H163.967H165.677C165.677 23.7295 172.075 17.3318 179.967 17.3318V15.6216Z" fill="#00D3F2" fill-opacity="0.3" mask="url(#path-6-inside-2_10_2)"/>
<path d="M188.943 70.7108H218.943V40.7108H188.943V70.7108Z" fill="white"/>
</g>
<g filter="url(#filter2_dd_10_2)">
<mask id="path-9-inside-3_10_2" fill="white">
<path d="M19.9897 181.707C19.9897 172.871 27.1532 165.707 35.9897 165.707H67.9885C76.8251 165.707 83.9885 172.871 83.9885 181.707V213.706C83.9885 222.542 76.8251 229.706 67.9885 229.706H35.9897C27.1532 229.706 19.9897 222.542 19.9897 213.706V181.707Z"/>
</mask>
<path d="M19.9897 181.707C19.9897 172.871 27.1532 165.707 35.9897 165.707H67.9885C76.8251 165.707 83.9885 172.871 83.9885 181.707V213.706C83.9885 222.542 76.8251 229.706 67.9885 229.706H35.9897C27.1532 229.706 19.9897 222.542 19.9897 213.706V181.707Z" fill="url(#paint3_linear_10_2)" shape-rendering="crispEdges"/>
<path d="M35.9897 165.707V167.417H67.9885V165.707V163.997H35.9897V165.707ZM83.9885 181.707H82.2783V213.706H83.9885H85.6987V181.707H83.9885ZM67.9885 229.706V227.996H35.9897V229.706V231.416H67.9885V229.706ZM19.9897 213.706H21.6999V181.707H19.9897H18.2795V213.706H19.9897ZM35.9897 229.706V227.996C28.0977 227.996 21.6999 221.598 21.6999 213.706H19.9897H18.2795C18.2795 223.487 26.2087 231.416 35.9897 231.416V229.706ZM83.9885 213.706H82.2783C82.2783 221.598 75.8806 227.996 67.9885 227.996V229.706V231.416C77.7696 231.416 85.6987 223.487 85.6987 213.706H83.9885ZM67.9885 165.707V167.417C75.8806 167.417 82.2783 173.815 82.2783 181.707H83.9885H85.6987C85.6987 171.926 77.7696 163.997 67.9885 163.997V165.707ZM35.9897 165.707V163.997C26.2087 163.997 18.2795 171.926 18.2795 181.707H19.9897H21.6999C21.6999 173.815 28.0977 167.417 35.9897 167.417V165.707Z" fill="#C27AFF" fill-opacity="0.3" mask="url(#path-9-inside-3_10_2)"/>
<path d="M39.9758 209.387H63.9758V185.387H39.9758V209.387Z" fill="white"/>
</g>
<g filter="url(#filter3_dd_10_2)">
<mask id="path-12-inside-4_10_2" fill="white">
<path d="M12 95.7642C12 86.9276 19.1634 79.7642 28 79.7642H51.9822C60.8188 79.7642 67.9822 86.9276 67.9822 95.7642V119.746C67.9822 128.583 60.8188 135.746 51.9822 135.746H28C19.1635 135.746 12 128.583 12 119.746V95.7642Z"/>
</mask>
<path d="M12 95.7642C12 86.9276 19.1634 79.7642 28 79.7642H51.9822C60.8188 79.7642 67.9822 86.9276 67.9822 95.7642V119.746C67.9822 128.583 60.8188 135.746 51.9822 135.746H28C19.1635 135.746 12 128.583 12 119.746V95.7642Z" fill="url(#paint4_linear_10_2)" shape-rendering="crispEdges"/>
<path d="M28 79.7642V81.4744H51.9822V79.7642V78.054H28V79.7642ZM67.9822 95.7642H66.272V119.746H67.9822H69.6924V95.7642H67.9822ZM51.9822 135.746V134.036H28V135.746V137.457H51.9822V135.746ZM12 119.746H13.7102V95.7642H12H10.2898V119.746H12ZM28 135.746V134.036C20.108 134.036 13.7102 127.638 13.7102 119.746H12H10.2898C10.2898 129.527 18.2189 137.457 28 137.457V135.746ZM67.9822 119.746H66.272C66.272 127.638 59.8743 134.036 51.9822 134.036V135.746V137.457C61.7633 137.457 69.6924 129.527 69.6924 119.746H67.9822ZM51.9822 79.7642V81.4744C59.8742 81.4744 66.272 87.8721 66.272 95.7642H67.9822H69.6924C69.6924 85.9831 61.7633 78.054 51.9822 78.054V79.7642ZM28 79.7642V78.054C18.2189 78.054 10.2898 85.9831 10.2898 95.7642H12H13.7102C13.7102 87.8721 20.108 81.4744 28 81.4744V79.7642Z" fill="#51A2FF" fill-opacity="0.3" mask="url(#path-12-inside-4_10_2)"/>
<path d="M29.9778 118.155H49.9778V98.1552H29.9778V118.155Z" fill="white"/>
</g>
<g filter="url(#filter4_dd_10_2)">
<mask id="path-15-inside-5_10_2" fill="white">
<path d="M43.9861 55.6883C43.9861 47.0253 51.0088 40.0026 59.6718 40.0026H131.634C140.297 40.0026 147.319 47.0253 147.319 55.6883V55.6883C147.319 64.3513 140.297 71.374 131.634 71.374H59.6718C51.0088 71.374 43.9861 64.3513 43.9861 55.6883V55.6883Z"/>
</mask>
<path d="M43.9861 55.6883C43.9861 47.0253 51.0088 40.0026 59.6718 40.0026H131.634C140.297 40.0026 147.319 47.0253 147.319 55.6883V55.6883C147.319 64.3513 140.297 71.374 131.634 71.374H59.6718C51.0088 71.374 43.9861 64.3513 43.9861 55.6883V55.6883Z" fill="url(#paint5_linear_10_2)" shape-rendering="crispEdges"/>
<path d="M43.9861 55.6883M147.319 55.6883M147.319 55.6883M43.9861 55.6883M59.6718 40.0026V41.7128H131.634V40.0026V38.2924H59.6718V40.0026ZM147.319 55.6883M131.634 71.374V69.6638H59.6718V71.374V73.0842H131.634V71.374ZM43.9861 55.6883M59.6718 71.374V69.6638C51.9533 69.6638 45.6963 63.4067 45.6963 55.6883H43.9861H42.2759C42.2759 65.2958 50.0643 73.0842 59.6718 73.0842V71.374ZM147.319 55.6883H145.609C145.609 63.4067 139.352 69.6638 131.634 69.6638V71.374V73.0842C141.241 73.0842 149.03 65.2958 149.03 55.6883H147.319ZM131.634 40.0026V41.7128C139.352 41.7128 145.609 47.9698 145.609 55.6883H147.319H149.03C149.03 46.0808 141.241 38.2924 131.634 38.2924V40.0026ZM59.6718 40.0026V38.2924C50.0643 38.2924 42.2759 46.0808 42.2759 55.6883H43.9861H45.6963C45.6963 47.9698 51.9533 41.7128 59.6718 41.7128V40.0026Z" fill="#0F111A" fill-opacity="0.7" mask="url(#path-15-inside-5_10_2)"/>
<g clip-path="url(#clip0_10_2)">
<path d="M63.2019 51.096C63.2233 50.9813 63.2841 50.8777 63.3739 50.8032C63.4636 50.7287 63.5766 50.6879 63.6933 50.6879C63.8099 50.6879 63.9229 50.7287 64.0127 50.8032C64.1024 50.8777 64.1633 50.9813 64.1847 51.096L64.7101 53.8746C64.7474 54.0721 64.8434 54.2538 64.9856 54.396C65.1277 54.5381 65.3094 54.6341 65.507 54.6714L68.2855 55.1968C68.4002 55.2183 68.5038 55.2791 68.5783 55.3689C68.6529 55.4586 68.6937 55.5716 68.6937 55.6883C68.6937 55.8049 68.6529 55.9179 68.5783 56.0077C68.5038 56.0974 68.4002 56.1583 68.2855 56.1797L65.507 56.7051C65.3094 56.7424 65.1277 56.8384 64.9856 56.9806C64.8434 57.1227 64.7474 57.3044 64.7101 57.502L64.1847 60.2805C64.1633 60.3952 64.1024 60.4988 64.0127 60.5733C63.9229 60.6479 63.8099 60.6887 63.6933 60.6887C63.5766 60.6887 63.4636 60.6479 63.3739 60.5733C63.2841 60.4988 63.2233 60.3952 63.2019 60.2805L62.6764 57.502C62.6391 57.3044 62.5431 57.1227 62.401 56.9806C62.2588 56.8384 62.0771 56.7424 61.8796 56.7051L59.101 56.1797C58.9863 56.1583 58.8827 56.0974 58.8082 56.0077C58.7337 55.9179 58.6929 55.8049 58.6929 55.6883C58.6929 55.5716 58.7337 55.4586 58.8082 55.3689C58.8827 55.2791 58.9863 55.2183 59.101 55.1968L61.8796 54.6714C62.0771 54.6341 62.2588 54.5381 62.401 54.396C62.5431 54.2538 62.6391 54.0721 62.6764 53.8746L63.2019 51.096Z" stroke="white" stroke-width="0.999842" stroke-linecap="round" stroke-linejoin="round"/>
<path d="M67.6929 50.689V52.6887" stroke="white" stroke-width="0.999842" stroke-linecap="round" stroke-linejoin="round"/>
<path d="M68.6926 51.6889H66.6929" stroke="white" stroke-width="0.999842" stroke-linecap="round" stroke-linejoin="round"/>
<path d="M59.6939 60.6875C60.2461 60.6875 60.6938 60.2398 60.6938 59.6876C60.6938 59.1354 60.2461 58.6878 59.6939 58.6878C59.1417 58.6878 58.6941 59.1354 58.6941 59.6876C58.6941 60.2398 59.1417 60.6875 59.6939 60.6875Z" stroke="white" stroke-width="0.999842" stroke-linecap="round" stroke-linejoin="round"/>
</g>
<path d="M73.6565 56.9883L76.9553 48.3984H78.1799L81.6956 56.9883H80.4006L79.3987 54.3867H75.8069L74.8635 56.9883H73.6565ZM76.135 53.4609H79.0471L78.1506 51.082C77.8772 50.3594 77.6741 49.7656 77.5413 49.3008C77.4319 49.8516 77.2776 50.3984 77.0784 50.9414L76.135 53.4609ZM82.7971 56.9883V48.3984H83.9338V56.9883H82.7971ZM89.2834 56.9883V48.3984H92.5237C93.094 48.3984 93.5295 48.4258 93.8303 48.4805C94.2522 48.5508 94.6057 48.6855 94.8909 48.8848C95.176 49.0801 95.4045 49.3555 95.5764 49.7109C95.7522 50.0664 95.8401 50.457 95.8401 50.8828C95.8401 51.6133 95.6077 52.2324 95.1428 52.7402C94.678 53.2441 93.8381 53.4961 92.6233 53.4961H90.4202V56.9883H89.2834ZM90.4202 52.4824H92.6409C93.3752 52.4824 93.8967 52.3457 94.2053 52.0723C94.5139 51.7988 94.6682 51.4141 94.6682 50.918C94.6682 50.5586 94.5764 50.252 94.3928 49.998C94.2131 49.7402 93.9749 49.5703 93.678 49.4883C93.4866 49.4375 93.1331 49.4121 92.6174 49.4121H90.4202V52.4824ZM96.76 53.877C96.76 52.7246 97.0803 51.8711 97.7209 51.3164C98.2561 50.8555 98.9084 50.625 99.678 50.625C100.533 50.625 101.233 50.9062 101.776 51.4688C102.319 52.0273 102.59 52.8008 102.59 53.7891C102.59 54.5898 102.469 55.2207 102.227 55.6816C101.989 56.1387 101.639 56.4941 101.178 56.748C100.721 57.002 100.221 57.1289 99.678 57.1289C98.8069 57.1289 98.1018 56.8496 97.5627 56.291C97.0276 55.7324 96.76 54.9277 96.76 53.877ZM97.844 53.877C97.844 54.6738 98.0178 55.2715 98.3655 55.6699C98.7131 56.0645 99.1506 56.2617 99.678 56.2617C100.201 56.2617 100.637 56.0625 100.985 55.6641C101.332 55.2656 101.506 54.6582 101.506 53.8418C101.506 53.0723 101.33 52.4902 100.979 52.0957C100.631 51.6973 100.198 51.498 99.678 51.498C99.1506 51.498 98.7131 51.6953 98.3655 52.0898C98.0178 52.4844 97.844 53.0801 97.844 53.877ZM104.981 56.9883L103.076 50.7656H104.166L105.156 54.3574L105.526 55.6934C105.541 55.627 105.649 55.1992 105.848 54.4102L106.838 50.7656H107.922L108.854 54.375L109.164 55.5645L109.522 54.3633L110.588 50.7656H111.614L109.668 56.9883H108.573L107.582 53.2617L107.342 52.2012L106.082 56.9883H104.981ZM116.764 54.9844L117.854 55.1191C117.682 55.7559 117.364 56.25 116.899 56.6016C116.434 56.9531 115.84 57.1289 115.117 57.1289C114.207 57.1289 113.485 56.8496 112.949 56.291C112.418 55.7285 112.153 54.9414 112.153 53.9297C112.153 52.8828 112.422 52.0703 112.961 51.4922C113.5 50.9141 114.199 50.625 115.059 50.625C115.891 50.625 116.571 50.9082 117.098 51.4746C117.625 52.041 117.889 52.8379 117.889 53.8652C117.889 53.9277 117.887 54.0215 117.883 54.1465H113.242C113.281 54.8301 113.475 55.3535 113.823 55.7168C114.17 56.0801 114.604 56.2617 115.123 56.2617C115.51 56.2617 115.84 56.1602 116.114 55.957C116.387 55.7539 116.604 55.4297 116.764 54.9844ZM113.301 53.2793H116.776C116.729 52.7559 116.596 52.3633 116.377 52.1016C116.041 51.6953 115.606 51.4922 115.071 51.4922C114.586 51.4922 114.178 51.6543 113.846 51.9785C113.518 52.3027 113.336 52.7363 113.301 53.2793ZM119.172 56.9883V50.7656H120.121V51.709C120.364 51.2676 120.586 50.9766 120.789 50.8359C120.996 50.6953 121.223 50.625 121.469 50.625C121.824 50.625 122.186 50.7383 122.553 50.9648L122.19 51.9434C121.932 51.791 121.674 51.7148 121.416 51.7148C121.186 51.7148 120.979 51.7852 120.795 51.9258C120.612 52.0625 120.481 52.2539 120.403 52.5C120.285 52.875 120.227 53.2852 120.227 53.7305V56.9883H119.172ZM127.44 54.9844L128.53 55.1191C128.358 55.7559 128.039 56.25 127.574 56.6016C127.11 56.9531 126.516 57.1289 125.793 57.1289C124.883 57.1289 124.16 56.8496 123.625 56.291C123.094 55.7285 122.828 54.9414 122.828 53.9297C122.828 52.8828 123.098 52.0703 123.637 51.4922C124.176 50.9141 124.875 50.625 125.735 50.625C126.567 50.625 127.246 50.9082 127.774 51.4746C128.301 52.041 128.565 52.8379 128.565 53.8652C128.565 53.9277 128.563 54.0215 128.559 54.1465H123.918C123.957 54.8301 124.151 55.3535 124.498 55.7168C124.846 56.0801 125.28 56.2617 125.799 56.2617C126.186 56.2617 126.516 56.1602 126.789 55.957C127.063 55.7539 127.28 55.4297 127.44 54.9844ZM123.977 53.2793H127.451C127.405 52.7559 127.272 52.3633 127.053 52.1016C126.717 51.6953 126.281 51.4922 125.746 51.4922C125.262 51.4922 124.854 51.6543 124.522 51.9785C124.194 52.3027 124.012 52.7363 123.977 53.2793ZM133.897 56.9883V56.2031C133.502 56.8203 132.922 57.1289 132.156 57.1289C131.66 57.1289 131.203 56.9922 130.785 56.7188C130.371 56.4453 130.049 56.0645 129.819 55.5762C129.592 55.084 129.479 54.5195 129.479 53.8828C129.479 53.2617 129.582 52.6992 129.789 52.1953C129.996 51.6875 130.307 51.2988 130.721 51.0293C131.135 50.7598 131.598 50.625 132.11 50.625C132.485 50.625 132.819 50.7051 133.112 50.8652C133.405 51.0215 133.643 51.2266 133.826 51.4805V48.3984H134.875V56.9883H133.897ZM130.563 53.8828C130.563 54.6797 130.731 55.2754 131.067 55.6699C131.403 56.0645 131.799 56.2617 132.256 56.2617C132.717 56.2617 133.108 56.0742 133.428 55.6992C133.752 55.3203 133.914 54.7441 133.914 53.9707C133.914 53.1191 133.75 52.4941 133.422 52.0957C133.094 51.6973 132.69 51.498 132.209 51.498C131.74 51.498 131.348 51.6895 131.031 52.0723C130.719 52.4551 130.563 53.0586 130.563 53.8828Z" fill="white"/>
</g>
<defs>
<filter id="filter0_d_10_2" x="13.9758" y="34.9924" width="235.984" height="235.984" filterUnits="userSpaceOnUse" color-interpolation-filters="sRGB">
<feFlood flood-opacity="0" result="BackgroundImageFix"/>
<feColorMatrix in="SourceAlpha" type="matrix" values="0 0 0 0 0 0 0 0 0 0 0 0 0 0 0 0 0 0 127 0" result="hardAlpha"/>
<feMorphology radius="12" operator="erode" in="SourceAlpha" result="effect1_dropShadow_10_2"/>
<feOffset dy="25"/>
<feGaussianBlur stdDeviation="25"/>
<feComposite in2="hardAlpha" operator="out"/>
<feColorMatrix type="matrix" values="0 0 0 0 0 0 0 0 0 0 0 0 0 0 0 0 0 0 0.25 0"/>
<feBlend mode="normal" in2="BackgroundImageFix" result="effect1_dropShadow_10_2"/>
<feBlend mode="normal" in="SourceGraphic" in2="effect1_dropShadow_10_2" result="shape"/>
</filter>
<filter id="filter1_dd_10_2" x="151.967" y="13.6216" width="103.979" height="103.978" filterUnits="userSpaceOnUse" color-interpolation-filters="sRGB">
<feFlood flood-opacity="0" result="BackgroundImageFix"/>
<feColorMatrix in="SourceAlpha" type="matrix" values="0 0 0 0 0 0 0 0 0 0 0 0 0 0 0 0 0 0 127 0" result="hardAlpha"/>
<feMorphology radius="4" operator="erode" in="SourceAlpha" result="effect1_dropShadow_10_2"/>
<feOffset dy="4"/>
<feGaussianBlur stdDeviation="3"/>
<feComposite in2="hardAlpha" operator="out"/>
<feColorMatrix type="matrix" values="0 0 0 0 0 0 0 0 0 0 0 0 0 0 0 0 0 0 0.1 0"/>
<feBlend mode="normal" in2="BackgroundImageFix" result="effect1_dropShadow_10_2"/>
<feColorMatrix in="SourceAlpha" type="matrix" values="0 0 0 0 0 0 0 0 0 0 0 0 0 0 0 0 0 0 127 0" result="hardAlpha"/>
<feMorphology radius="3" operator="erode" in="SourceAlpha" result="effect2_dropShadow_10_2"/>
<feOffset dy="10"/>
<feGaussianBlur stdDeviation="7.5"/>
<feComposite in2="hardAlpha" operator="out"/>
<feColorMatrix type="matrix" values="0 0 0 0 0 0 0 0 0 0 0 0 0 0 0 0 0 0 0.1 0"/>
<feBlend mode="normal" in2="effect1_dropShadow_10_2" result="effect2_dropShadow_10_2"/>
<feBlend mode="normal" in="SourceGraphic" in2="effect2_dropShadow_10_2" result="shape"/>
</filter>
<filter id="filter2_dd_10_2" x="7.98975" y="163.707" width="87.9988" height="87.9988" filterUnits="userSpaceOnUse" color-interpolation-filters="sRGB">
<feFlood flood-opacity="0" result="BackgroundImageFix"/>
<feColorMatrix in="SourceAlpha" type="matrix" values="0 0 0 0 0 0 0 0 0 0 0 0 0 0 0 0 0 0 127 0" result="hardAlpha"/>
<feMorphology radius="4" operator="erode" in="SourceAlpha" result="effect1_dropShadow_10_2"/>
<feOffset dy="4"/>
<feGaussianBlur stdDeviation="3"/>
<feComposite in2="hardAlpha" operator="out"/>
<feColorMatrix type="matrix" values="0 0 0 0 0 0 0 0 0 0 0 0 0 0 0 0 0 0 0.1 0"/>
<feBlend mode="normal" in2="BackgroundImageFix" result="effect1_dropShadow_10_2"/>
<feColorMatrix in="SourceAlpha" type="matrix" values="0 0 0 0 0 0 0 0 0 0 0 0 0 0 0 0 0 0 127 0" result="hardAlpha"/>
<feMorphology radius="3" operator="erode" in="SourceAlpha" result="effect2_dropShadow_10_2"/>
<feOffset dy="10"/>
<feGaussianBlur stdDeviation="7.5"/>
<feComposite in2="hardAlpha" operator="out"/>
<feColorMatrix type="matrix" values="0 0 0 0 0 0 0 0 0 0 0 0 0 0 0 0 0 0 0.1 0"/>
<feBlend mode="normal" in2="effect1_dropShadow_10_2" result="effect2_dropShadow_10_2"/>
<feBlend mode="normal" in="SourceGraphic" in2="effect2_dropShadow_10_2" result="shape"/>
</filter>
<filter id="filter3_dd_10_2" x="0" y="77.7642" width="79.9822" height="79.9822" filterUnits="userSpaceOnUse" color-interpolation-filters="sRGB">
<feFlood flood-opacity="0" result="BackgroundImageFix"/>
<feColorMatrix in="SourceAlpha" type="matrix" values="0 0 0 0 0 0 0 0 0 0 0 0 0 0 0 0 0 0 127 0" result="hardAlpha"/>
<feMorphology radius="4" operator="erode" in="SourceAlpha" result="effect1_dropShadow_10_2"/>
<feOffset dy="4"/>
<feGaussianBlur stdDeviation="3"/>
<feComposite in2="hardAlpha" operator="out"/>
<feColorMatrix type="matrix" values="0 0 0 0 0 0 0 0 0 0 0 0 0 0 0 0 0 0 0.1 0"/>
<feBlend mode="normal" in2="BackgroundImageFix" result="effect1_dropShadow_10_2"/>
<feColorMatrix in="SourceAlpha" type="matrix" values="0 0 0 0 0 0 0 0 0 0 0 0 0 0 0 0 0 0 127 0" result="hardAlpha"/>
<feMorphology radius="3" operator="erode" in="SourceAlpha" result="effect2_dropShadow_10_2"/>
<feOffset dy="10"/>
<feGaussianBlur stdDeviation="7.5"/>
<feComposite in2="hardAlpha" operator="out"/>
<feColorMatrix type="matrix" values="0 0 0 0 0 0 0 0 0 0 0 0 0 0 0 0 0 0 0.1 0"/>
<feBlend mode="normal" in2="effect1_dropShadow_10_2" result="effect2_dropShadow_10_2"/>
<feBlend mode="normal" in="SourceGraphic" in2="effect2_dropShadow_10_2" result="shape"/>
</filter>
<filter id="filter4_dd_10_2" x="31.9861" y="38.0026" width="127.333" height="55.3714" filterUnits="userSpaceOnUse" color-interpolation-filters="sRGB">
<feFlood flood-opacity="0" result="BackgroundImageFix"/>
<feColorMatrix in="SourceAlpha" type="matrix" values="0 0 0 0 0 0 0 0 0 0 0 0 0 0 0 0 0 0 127 0" result="hardAlpha"/>
<feMorphology radius="4" operator="erode" in="SourceAlpha" result="effect1_dropShadow_10_2"/>
<feOffset dy="4"/>
<feGaussianBlur stdDeviation="3"/>
<feComposite in2="hardAlpha" operator="out"/>
<feColorMatrix type="matrix" values="0 0 0 0 0 0 0 0 0 0 0 0 0 0 0 0 0 0 0.1 0"/>
<feBlend mode="normal" in2="BackgroundImageFix" result="effect1_dropShadow_10_2"/>
<feColorMatrix in="SourceAlpha" type="matrix" values="0 0 0 0 0 0 0 0 0 0 0 0 0 0 0 0 0 0 127 0" result="hardAlpha"/>
<feMorphology radius="3" operator="erode" in="SourceAlpha" result="effect2_dropShadow_10_2"/>
<feOffset dy="10"/>
<feGaussianBlur stdDeviation="7.5"/>
<feComposite in2="hardAlpha" operator="out"/>
<feColorMatrix type="matrix" values="0 0 0 0 0 0 0 0 0 0 0 0 0 0 0 0 0 0 0.1 0"/>
<feBlend mode="normal" in2="effect1_dropShadow_10_2" result="effect2_dropShadow_10_2"/>
<feBlend mode="normal" in="SourceGraphic" in2="effect2_dropShadow_10_2" result="shape"/>
</filter>
<linearGradient id="paint0_linear_10_2" x1="51.9758" y1="47.9924" x2="211.959" y2="207.976" gradientUnits="userSpaceOnUse">
<stop stop-color="#AD46FF" stop-opacity="0.2"/>
<stop offset="1" stop-color="#2B7FFF" stop-opacity="0.2"/>
</linearGradient>
<linearGradient id="paint1_linear_10_2" x1="0" y1="0" x2="156.563" y2="156.563" gradientUnits="userSpaceOnUse">
<stop stop-color="#AD46FF" stop-opacity="0.1"/>
<stop offset="1" stop-color="#2B7FFF" stop-opacity="0.1"/>
</linearGradient>
<linearGradient id="paint2_linear_10_2" x1="163.967" y1="15.6216" x2="243.945" y2="95.6" gradientUnits="userSpaceOnUse">
<stop stop-color="#00B8DB" stop-opacity="0.2"/>
<stop offset="1" stop-color="#2B7FFF" stop-opacity="0.2"/>
</linearGradient>
<linearGradient id="paint3_linear_10_2" x1="19.9897" y1="165.707" x2="83.9885" y2="229.706" gradientUnits="userSpaceOnUse">
<stop stop-color="#AD46FF" stop-opacity="0.2"/>
<stop offset="1" stop-color="#F6339A" stop-opacity="0.2"/>
</linearGradient>
<linearGradient id="paint4_linear_10_2" x1="12" y1="79.7642" x2="67.9822" y2="135.746" gradientUnits="userSpaceOnUse">
<stop stop-color="#2B7FFF" stop-opacity="0.2"/>
<stop offset="1" stop-color="#AD46FF" stop-opacity="0.2"/>
</linearGradient>
<linearGradient id="paint5_linear_10_2" x1="43.9861" y1="55.6883" x2="147.319" y2="55.6883" gradientUnits="userSpaceOnUse">
<stop stop-color="#AD46FF"/>
<stop offset="1" stop-color="#2B7FFF"/>
</linearGradient>
<clipPath id="clip0_10_2">
<rect width="11.9981" height="11.9981" fill="white" transform="translate(57.6943 49.6892)"/>
</clipPath>
</defs>
</svg>
